<svg xmlns="http://www.w3.org/2000/svg" viewBox="0 0 1024 1024" role="img" aria-labelledby="title desc">
  <title id="title">roma-just-talk menu bar icon</title>
  <desc id="desc">Monochrome split keyboard halves around a voice waveform.</desc>
  <g fill="none" stroke="#000" stroke-linecap="round" stroke-linejoin="round">
    <path d="M325 238
             L145 272
             Q86 283 80 348
             L80 676
             Q88 739 148 750
             L325 786
             L280 674
             L356 596
             L284 522
             L356 448
             L284 374
             Z"
          stroke-width="70"/>
    <path d="M699 238
             L879 272
             Q938 283 944 348
             L944 676
             Q936 739 876 750
             L699 786
             L744 674
             L668 596
             L740 522
             L668 448
             L740 374
             Z"
          stroke-width="70"/>
    <path d="M162 410 L249 420" stroke-width="48"/>
    <path d="M156 542 L244 552" stroke-width="48"/>
    <path d="M141 672 L276 694" stroke-width="48"/>
    <path d="M862 410 L775 420" stroke-width="48"/>
    <path d="M868 542 L780 552" stroke-width="48"/>
    <path d="M883 672 L748 694" stroke-width="48"/>
    <path d="M394 508 L394 548" stroke-width="38"/>
    <path d="M436 468 L436 588" stroke-width="38"/>
    <path d="M478 424 L478 632" stroke-width="38"/>
    <path d="M520 356 L520 700" stroke-width="38"/>
    <path d="M562 424 L562 632" stroke-width="38"/>
    <path d="M604 468 L604 588" stroke-width="38"/>
    <path d="M646 508 L646 548" stroke-width="38"/>
  </g>
</svg>
